<?xml version="1.0" encoding="iso-8859-1"?>
<!-- Generator: Adobe Illustrator 25.1.0, SVG Export Plug-In . SVG Version: 6.00 Build 0)  -->
<svg version="1.1" id="Layer_1" xmlns="http://www.w3.org/2000/svg" xmlns:xlink="http://www.w3.org/1999/xlink" x="0px" y="0px"
	 viewBox="0 0 255.849 54" style="enable-background:new 0 0 255.849 54;" xml:space="preserve">
<g>
	<rect x="52" y="8.007" style="fill:#010101;" width="20" height="8"/>
</g>
<g>
	<rect x="13" y="8.007" style="fill:#010101;" width="8" height="26"/>
</g>
<g>
	<rect x="26" y="8.007" style="fill:#010101;" width="8" height="38"/>
</g>
<g>
	<rect y="8.007" style="fill:#010101;" width="8" height="38"/>
</g>
<g>
	<rect x="52" y="21.007" style="fill:#010101;" width="8" height="25"/>
</g>
<g>
	<rect x="39" y="8.007" style="fill:#010101;" width="8" height="8"/>
</g>
<g>
	<rect x="39" y="21.007" style="fill:#A41F35;" width="8" height="25"/>
</g>
<rect x="88" style="fill:#2D2A26;" width="1" height="54"/>
<g>
	<path d="M114.469,21.915h-3.725l-2.667-8.462l0.115,10.555h-3.633V6.761h4.622l3.426,10.738l3.426-10.738h4.622v17.246h-3.633
		l0.115-10.555L114.469,21.915z"/>
	<path d="M128.683,15.959c0-0.529-0.367-0.805-1.356-0.805c-1.449,0-3.127,0.437-4.139,0.874v-3.081
		c0.782-0.345,2.506-0.759,4.139-0.759c4.14,0,4.921,1.771,4.921,4.346v7.473h-2.207l-0.506-0.874
		c-0.828,0.736-2.001,1.196-3.381,1.196c-2.92,0-3.909-1.932-3.909-3.656c0-3.104,2.276-3.564,4.347-3.771l2.092-0.207V15.959z
		 M127.142,18.902c-1.034,0.138-1.448,0.644-1.448,1.541c0,0.851,0.552,1.357,1.334,1.357c0.667,0,1.288-0.184,1.655-0.552v-2.553
		L127.142,18.902z"/>
	<path d="M142.804,15.867c-1.058-0.437-2.368-0.736-3.702-0.736c-1.034,0-1.609,0.23-1.609,0.805c0,0.598,0.391,0.736,1.149,0.805
		c3.633,0.322,4.645,1.288,4.645,3.679c0,2.208-1.311,3.909-5.196,3.909c-2.116,0-3.335-0.391-4.185-0.736v-3.081
		c1.08,0.46,2.645,0.874,4.093,0.874c1.173,0,1.702-0.23,1.702-0.805c0-0.598-0.392-0.736-1.15-0.805
		c-3.633-0.322-4.645-1.288-4.645-3.679c0-2.346,1.518-3.909,5.059-3.909c2.092,0,3.081,0.276,3.84,0.598V15.867z"/>
	<path d="M153.384,24.007l-0.461-0.828c-1.287,0.782-2.736,1.149-4,1.149c-3.128,0-4.024-1.655-4.024-3.863V12.51h3.679v7.404
		c0,0.851,0.299,1.426,1.288,1.426c0.897,0,1.702-0.368,2.046-0.598V12.51h3.68v11.498H153.384z"/>
	<path d="M159.619,6.991c1.219,0,2.184,0.966,2.184,2.185c0,1.242-0.965,2.184-2.184,2.184c-1.242,0-2.186-0.942-2.186-2.184
		C157.433,7.957,158.376,6.991,159.619,6.991z M162.377,24.099c0,0-0.483,0.092-1.058,0.092c-1.978,0-3.541-1.012-3.541-3.242V12.51
		h3.656v7.933c0,0.437,0.207,0.69,0.942,0.69V24.099z"/>
	<path d="M180.523,18.512c0,4.277-2.69,5.817-6.761,5.817c-1.862,0-4.14-0.322-5.381-1.058V19.5c0.806,0.46,2.737,1.333,5.013,1.333
		c2.599,0,3.357-0.805,3.357-1.978c0-1.311-0.574-1.748-2.322-1.978c-4.369-0.575-6.048-1.863-6.048-5.243
		c0-3.127,1.909-5.197,6.462-5.197c2.346,0,4.07,0.414,4.875,0.851v3.564c-0.943-0.46-2.852-0.919-4.6-0.919
		c-1.908,0-2.966,0.598-2.966,1.702c0,1.242,0.667,1.632,2.46,1.885C178.43,14.05,180.523,14.833,180.523,18.512z"/>
	<path d="M185.332,12.51l1.885,6.761l1.887-6.761h3.978l-6.577,17.246h-4.023l2.989-6.507l-4.116-10.739H185.332z"/>
	<path d="M196.441,12.51l0.459,0.828c1.288-0.782,2.736-1.149,4.002-1.149c3.127,0,4.023,1.656,4.023,3.863v7.956h-3.679v-7.404
		c0-0.851-0.299-1.426-1.288-1.426c-0.896,0-1.701,0.368-2.047,0.598v8.232h-3.679V12.51H196.441z"/>
	<path d="M206.423,18.259c0-3.587,1.149-6.071,5.403-6.071c4.255,0,5.403,2.483,5.403,6.071c0,3.587-1.148,6.07-5.403,6.07
		C207.573,24.329,206.423,21.846,206.423,18.259z M210.102,18.259c0,2.299,0.46,3.127,1.725,3.127s1.725-0.828,1.725-3.127
		c0-2.3-0.46-3.127-1.725-3.127S210.102,15.959,210.102,18.259z"/>
	<path d="M221.05,12.51l0.621,0.92c0.805-0.69,1.885-1.242,3.725-1.242c2.99,0,4.461,1.839,4.461,6.071
		c0,4.231-1.471,6.07-4.461,6.07c-1.264,0-2.184-0.322-2.874-0.736v6.163h-3.679V12.51H221.05z M222.522,20.88
		c0,0,0.713,0.483,1.633,0.483c1.702,0,2.069-1.149,2.069-3.104c0-1.978-0.367-3.059-2.069-3.059c-0.92,0-1.633,0.483-1.633,0.483
		V20.88z"/>
	<path d="M238.736,24.099c-0.506,0.138-1.379,0.23-1.885,0.23c-3.22,0-4.438-1.356-4.438-4.07v-4.691h-1.862v-2.438l1.862-0.506
		v-2.369l3.679-0.989v3.242h2.852v3.059h-2.852v4.392c0,0.896,0.346,1.402,1.518,1.402c0.483,0,0.943-0.092,1.127-0.138V24.099z"/>
	<path d="M242.394,6.991c1.219,0,2.186,0.966,2.186,2.185c0,1.242-0.967,2.184-2.186,2.184c-1.241,0-2.184-0.942-2.184-2.184
		C240.21,7.957,241.153,6.991,242.394,6.991z M245.154,24.099c0,0-0.482,0.092-1.058,0.092c-1.978,0-3.541-1.012-3.541-3.242V12.51
		h3.656v7.933c0,0.437,0.206,0.69,0.942,0.69V24.099z"/>
	<path d="M252.491,21.156c1.012,0,1.794-0.207,2.552-0.529v3.127c-0.758,0.368-1.655,0.575-2.92,0.575
		c-4.254,0-5.818-2.162-5.818-6.07c0-3.909,1.564-6.071,5.818-6.071c1.265,0,2.162,0.207,2.92,0.575v3.127
		c-0.758-0.322-1.54-0.529-2.552-0.529c-1.519,0-2.553,0.713-2.553,2.897C249.938,20.443,250.972,21.156,252.491,21.156z"/>
	<path d="M108.237,47.008h-3.679V29.762h5.864c4.645,0,6.163,2.115,6.163,5.403c0,2.138-0.598,3.771-2.414,4.646l3.058,7.197h-4.3
		l-2.322-6.462h-2.369V47.008z M108.237,37.211h2.507c1.632,0,1.839-1.104,1.839-2.046c0-0.966-0.207-2.047-1.839-2.047h-2.507
		V37.211z"/>
	<path d="M124.382,38.959c0-0.529-0.368-0.805-1.356-0.805c-1.449,0-3.127,0.438-4.139,0.873v-3.08
		c0.782-0.346,2.506-0.76,4.139-0.76c4.14,0,4.921,1.771,4.921,4.347v7.474h-2.208l-0.506-0.875c-0.828,0.736-2,1.196-3.38,1.196
		c-2.92,0-3.909-1.932-3.909-3.656c0-3.104,2.276-3.563,4.346-3.771l2.092-0.207V38.959z M122.842,41.902
		c-1.035,0.139-1.449,0.645-1.449,1.541c0,0.851,0.552,1.356,1.334,1.356c0.667,0,1.288-0.185,1.655-0.552v-2.553L122.842,41.902z"
		/>
	<path d="M138.25,47.008l-0.62-0.92c-0.806,0.689-1.887,1.241-3.726,1.241c-2.989,0-4.462-1.839-4.462-6.07s1.473-6.071,4.462-6.071
		c1.265,0,2.185,0.322,2.874,0.736v-6.162h3.68v17.246H138.25z M136.779,38.66c0,0-0.713-0.482-1.633-0.482
		c-1.701,0-2.069,1.127-2.069,3.081c0,1.978,0.368,3.081,2.069,3.081c0.92,0,1.633-0.482,1.633-0.482V38.66z"/>
	<path d="M144.485,29.991c1.219,0,2.185,0.966,2.185,2.185c0,1.242-0.966,2.184-2.185,2.184c-1.241,0-2.185-0.941-2.185-2.184
		C142.3,30.957,143.244,29.991,144.485,29.991z M147.244,47.1c0,0-0.482,0.092-1.057,0.092c-1.979,0-3.541-1.012-3.541-3.242V35.51
		h3.656v7.934c0,0.437,0.206,0.689,0.941,0.689V47.1z"/>
	<path d="M148.395,41.259c0-3.587,1.149-6.071,5.403-6.071c4.255,0,5.404,2.484,5.404,6.071s-1.149,6.07-5.404,6.07
		C149.544,47.329,148.395,44.846,148.395,41.259z M152.074,41.259c0,2.3,0.461,3.127,1.725,3.127c1.266,0,1.725-0.827,1.725-3.127
		s-0.459-3.128-1.725-3.128C152.535,38.131,152.074,38.959,152.074,41.259z"/>
	<path d="M169.117,43.65h6.969v3.357h-10.647V29.762h3.679V43.65z"/>
	<path d="M183.308,38.959c0-0.529-0.368-0.805-1.357-0.805c-1.448,0-3.127,0.438-4.139,0.873v-3.08
		c0.781-0.346,2.506-0.76,4.139-0.76c4.14,0,4.922,1.771,4.922,4.347v7.474h-2.208l-0.506-0.875
		c-0.827,0.736-2.001,1.196-3.38,1.196c-2.921,0-3.91-1.932-3.91-3.656c0-3.104,2.277-3.563,4.347-3.771l2.093-0.207V38.959z
		 M181.767,41.902c-1.035,0.139-1.449,0.645-1.449,1.541c0,0.851,0.553,1.356,1.334,1.356c0.667,0,1.288-0.185,1.656-0.552v-2.553
		L181.767,41.902z"/>
	<path d="M188.829,47.008V29.762h3.679v6.162c0.69-0.414,1.61-0.736,2.875-0.736c2.989,0,4.461,1.84,4.461,6.071
		s-1.472,6.07-4.461,6.07c-1.84,0-2.92-0.552-3.725-1.241l-0.621,0.92H188.829z M192.507,43.857c0,0,0.713,0.482,1.633,0.482
		c1.702,0,2.07-1.104,2.07-3.081c0-1.954-0.368-3.081-2.07-3.081c-0.92,0-1.633,0.482-1.633,0.482V43.857z"/>
</g>
</svg>
